<?xml version="1.0" encoding="UTF-8"?>
<svg version="1.1" xmlns="http://www.w3.org/2000/svg" width="1000" height="1000">
<path d="M0 0 C2.82458334 1.29477643 4.96221779 2.6825616 7.22265625 4.80859375 C7.83431641 5.38158203 8.44597656 5.95457031 9.07617188 6.54492188 C9.73166016 7.16947266 10.38714844 7.79402344 11.0625 8.4375 C12.09793945 9.41493164 12.09793945 9.41493164 13.15429688 10.41210938 C19.67882802 16.61128545 26.03753176 22.97583029 32.35180664 29.38842773 C35.77637851 32.85198624 39.20632927 36.23648945 42.90625 39.40625 C49.02274154 44.66279917 54.56482914 50.52271765 60.22265625 56.26171875 C64.05486605 60.12739763 67.86411087 63.95793924 72 67.5 C78.09140264 72.71680287 83.59653402 78.5548774 89.22265625 84.26171875 C93.72143536 88.79978851 98.23429846 93.24000557 103.10864258 97.375 C104.3685575 98.45748273 105.60100999 99.57277789 106.8034668 100.71875 C112.62863364 106.18618432 119.30292931 109.76069627 126.3125 113.5 C127.60201177 114.19800788 128.89090069 114.89716751 130.17919922 115.59741211 C132.82494219 117.03474159 135.47294363 118.46777134 138.12255859 119.89794922 C143.98494018 123.06858991 149.80371987 126.31712883 155.625 129.5625 C157.85926744 130.80488095 160.09364246 132.04706845 162.328125 133.2890625 C165.66347361 135.14409401 168.99872901 136.99929303 172.33398438 138.85449219 C185.0445869 145.92378867 197.76278544 152.97878678 210.5 160 C219.74446008 165.09635692 228.98510794 170.19947534 238.21508789 175.32202148 C239.95493729 176.28749392 241.69523617 177.25215621 243.43554688 178.21679688 C244.48806641 178.80138672 245.54058594 179.38597656 246.625 179.98828125 C247.54539062 180.49915283 248.46578125 181.01002441 249.4140625 181.53637695 C251.96935871 182.98265724 254.48917503 184.47803897 257 186 C256.42282622 189.71286417 255.40601794 192.41741796 253.49609375 195.64453125 C253.00302734 196.48564453 252.50996094 197.32675781 252.00195312 198.19335938 C251.48568359 199.05767578 250.96941406 199.92199219 250.4375 200.8125 C249.91736328 201.69615234 249.39722656 202.57980469 248.86132812 203.49023438 C247.5805605 205.66401428 246.2933166 207.83367087 245 210 C248.13666712 213.31938559 251.58007057 216.05462121 255.25 218.75 C255.80429687 219.16121094 256.35859375 219.57242188 256.9296875 219.99609375 C258.28427052 221.00035358 259.64183224 222.00059353 261 223 C259.55797524 227.15151338 257.4989562 230.29978445 254.875 233.8125 C254.15054687 234.78832031 253.42609375 235.76414062 252.6796875 236.76953125 C252.12539063 237.50558594 251.57109375 238.24164063 251 239 C255.40843437 244.29012124 260.07559794 249.18808428 265 254 C263.66000502 257.006818 262.20154709 258.99762609 259.8125 261.25 C257.35362697 263.57642788 255.11686396 266.00938901 252.91796875 268.578125 C247.52864334 274.78605492 241.5888492 280.45484032 235.73828125 286.22265625 C231.26024015 290.66192644 226.94579999 295.13947346 222.84521484 299.92773438 C218.94756262 304.30498656 214.72480919 308.37664691 210.5625 312.5 C209.64017578 313.4178125 208.71785156 314.335625 207.76757812 315.28125 C205.51400101 317.52315055 203.25810925 319.762666 201 322 C202.26936947 324.73362753 203.62408666 326.92280422 205.6171875 329.1796875 C206.13571289 329.77168945 206.65423828 330.36369141 207.18847656 330.97363281 C207.7450293 331.60108398 208.30158203 332.22853516 208.875 332.875 C210.05502485 334.2210585 211.23470451 335.56741969 212.4140625 336.9140625 C213.01250977 337.59500977 213.61095703 338.27595703 214.22753906 338.97753906 C217.42752825 342.62887658 220.60832753 346.29750709 223.73291016 350.01367188 C225.99702811 352.70416451 228.26313444 355.26388198 230.75 357.7578125 C235.22449729 362.44205185 237.44084106 365.70335571 237.32958984 372.18188477 C237.29816895 372.89787842 237.26674805 373.61387207 237.234375 374.3515625 C237.20899658 375.45818237 237.20899658 375.45818237 237.18310547 376.5871582 C237.13926465 378.39193845 237.07201633 380.19612433 237 382 C230.26156565 382.38367298 223.52598086 382.64429291 216.77905273 382.82397461 C214.49022257 382.89893102 212.20209922 383.00094919 209.91577148 383.1315918 C189.89154672 384.2462343 189.89154672 384.2462343 183.66870117 378.78540039 C180.78003854 375.71207352 178.38940121 372.40605758 176.16044617 368.83155823 C174.52675867 366.25307259 172.61716639 363.92358101 170.6875 361.5625 C169.7869929 360.3785403 168.88887921 359.19271428 168 358 C166.91160226 358.88967344 165.82955392 359.78711574 164.75 360.6875 C164.14671875 361.18636719 163.5434375 361.68523437 162.921875 362.19921875 C157.45114277 367.32525038 154.34723365 373.6396698 150.875 380.1875 C149.70386891 382.37279467 148.53198854 384.55768795 147.359375 386.7421875 C146.78509766 387.81436523 146.21082031 388.88654297 145.61914062 389.99121094 C143.48832683 393.95082329 141.3163394 397.88613813 139.125 401.8125 C138.7338501 402.51407227 138.3427002 403.21564453 137.93969727 403.93847656 C137.09894095 405.44580993 136.25786286 406.95296386 135.41650391 408.45996094 C132.54154306 413.61526818 129.67829357 418.77709315 126.8125 423.9375 C125.51696875 426.26955441 124.22140046 428.60158821 122.92578125 430.93359375 C122.26904038 432.11572122 121.6123021 433.29785012 120.95556641 434.47998047 C119.04720052 437.91503906 117.13883464 441.35009766 115.23046875 444.78515625 C114.61405518 445.8947168 113.9976416 447.00427734 113.36254883 448.14746094 C112.12155594 450.38121561 110.88050782 452.61493961 109.6394043 454.84863281 C106.76983645 460.01332931 103.90074372 465.17828741 101.03373718 470.34440613 C94.05703244 482.91578871 87.07335375 495.48265583 80 508 C76.42635641 507.42590968 73.71615696 506.50054964 70.57421875 504.71484375 C69.77822266 504.26689453 68.98222656 503.81894531 68.16210938 503.35742188 C67.34548828 502.88884766 66.52886719 502.42027344 65.6875 501.9375 C64.85154297 501.46505859 64.01558594 500.99261719 63.15429688 500.50585938 C61.09930735 499.34332244 59.04812263 498.17457909 57 497 C51.2271555 503.37017935 46.08752406 510.07819855 41 517 C35.81660101 515.24747333 32.45864219 512.15082387 28.40234375 508.58203125 C26.20736103 506.84226698 26.20736103 506.84226698 24.05078125 506.9140625 C20.92491536 508.56928291 18.661189 511.02790369 16.25 513.5625 C15.49009766 514.34270508 15.49009766 514.34270508 14.71484375 515.13867188 C13.46965595 516.41910084 12.23388498 517.70867554 11 519 C7.51345524 517.5158627 5.35808928 515.53785948 2.75 512.8125 C0.05987073 510.00946385 -2.69171512 507.37980127 -5.640625 504.85546875 C-11.8313405 499.4917738 -17.47584859 493.56753952 -23.22265625 487.73828125 C-27.05486605 483.87260237 -30.86411087 480.04206076 -35 476.5 C-41.09140264 471.28319713 -46.59653402 465.4451226 -52.22265625 459.73828125 C-56.05486605 455.87260237 -59.86411087 452.04206076 -64 448.5 C-70.09140264 443.28319713 -75.59653402 437.4451226 -81.22265625 431.73828125 C-85.77448087 427.1467027 -90.36790185 422.71068143 -95.27978516 418.50634766 C-98.46363947 415.71832877 -101.31097626 412.60056201 -104.21484375 409.52734375 C-111.728399 402.70929292 -120.90284164 398.15612231 -129.75 393.3125 C-131.56455269 392.31476208 -133.37847457 391.3158923 -135.19195557 390.31620789 C-136.82575544 389.41622874 -138.46116823 388.51917943 -140.09667969 387.62231445 C-143 386 -143 386 -145.26049805 384.31298828 C-149.41261641 382.32296132 -153.36429345 382.59850587 -157.91015625 382.62890625 C-159.88997556 382.61150937 -161.86979323 382.59392516 -163.84960938 382.57617188 C-166.94754272 382.56615095 -170.04536176 382.56249049 -173.14331055 382.56420898 C-190.67535783 382.54315874 -203.10702285 381.62113814 -216.19140625 368.86328125 C-221.74196382 363.00606304 -225.45628513 357.46418521 -226.4453125 349.34375 C-227.24259141 341.4150459 -227.24259141 341.4150459 -232.078125 335.48046875 C-235.2514953 333.65725504 -238.56397078 332.25971399 -242 331 C-241.41926044 326.62832164 -239.78839097 323.61708195 -237.5 319.875 C-234.89393108 315.60317592 -234.89393108 315.60317592 -233 311 C-233.53625 310.76152344 -234.0725 310.52304687 -234.625 310.27734375 C-237.65524492 308.64759031 -240.26285107 306.64615462 -243 304.5625 C-244.03125 303.78003906 -245.0625 302.99757813 -246.125 302.19140625 C-247.07375 301.46824219 -248.0225 300.74507812 -249 300 C-250.3322808 298.99859815 -251.66512801 297.99794516 -253 297 C-251.46906512 292.32800909 -248.89242605 288.97829995 -245.875 285.1875 C-245.40707031 284.59001953 -244.93914062 283.99253906 -244.45703125 283.37695312 C-243.30994435 281.91383208 -242.15568766 280.45633703 -241 279 C-245.11619836 274.08064098 -249.40410362 269.47352044 -254 265 C-252.66000502 261.993182 -251.20154709 260.00237391 -248.8125 257.75 C-245.67063928 254.70531023 -242.79857966 251.53424743 -239.99951172 248.1730957 C-238 246 -238 246 -235.71020508 244.20629883 C-231.69815412 240.93891352 -229.32244104 238.49343212 -228.20996094 233.34082031 C-227.85563223 229.08044248 -227.94877631 224.83162137 -228.0625 220.5625 C-228.09040307 217.66795707 -228.09585156 214.77357167 -228.09765625 211.87890625 C-228.10187843 210.83910866 -228.10187843 210.83910866 -228.10618591 209.77830505 C-228.07674614 197.48567733 -224.24826436 185.14906334 -215.6875 176 C-205.43087744 166.95407008 -194.80698466 163.61705274 -181.25193787 164.1696167 C-164.82615438 165.08293487 -164.82615438 165.08293487 -150.43579102 158.33154297 C-140.73891527 148.2306801 -134.3364905 135.12400484 -127.97912598 122.75411987 C-124.75996275 116.49356722 -121.365947 110.33682874 -117.94360352 104.18560791 C-116.60139461 101.77013672 -115.26718446 99.35029027 -113.9329834 96.9303894 C-107.93678156 86.05579392 -101.89947004 75.20399456 -95.86328125 64.3515625 C-93.98021129 60.96440522 -92.09916827 57.57613003 -90.21875 54.1875 C-81.84804402 39.10492353 -73.43994607 24.04392346 -65 9 C-61.60932846 9.55867557 -58.9853283 10.34993244 -56.01171875 12.06640625 C-55.30595703 12.46923828 -54.60019531 12.87207031 -53.87304688 13.28710938 C-53.15181641 13.70798828 -52.43058594 14.12886719 -51.6875 14.5625 C-50.94693359 14.98724609 -50.20636719 15.41199219 -49.44335938 15.84960938 C-47.62531882 16.89351653 -45.81216252 17.94592192 -44 19 C-43.76539063 18.46890625 -43.53078125 17.9378125 -43.2890625 17.390625 C-41.61297088 14.2822369 -39.51548074 11.54600297 -37.375 8.75 C-36.74464844 7.91855469 -36.74464844 7.91855469 -36.1015625 7.0703125 C-35.07061281 5.71133337 -34.03570089 4.35536165 -33 3 C-28.6426774 4.47130373 -25.28065866 6.83080615 -21.6875 9.625 C-21.13771484 10.04523438 -20.58792969 10.46546875 -20.02148438 10.8984375 C-18.67707832 11.92720039 -17.33798587 12.9629009 -16 14 C-11.67495164 12.34136495 -8.90581175 9.128959 -5.75 5.875 C-4.91855469 5.03001953 -4.91855469 5.03001953 -4.0703125 4.16796875 C-2.70895515 2.78313972 -1.35385141 1.39216796 0 0 Z " fill="#717486" transform="translate(499,225)"/>
<path d="M0 0 C29.98875 -0.0825 59.9775 -0.165 90.875 -0.25 C100.33784668 -0.28641602 109.80069336 -0.32283203 119.55029297 -0.36035156 C131.12133789 -0.37841797 131.12133789 -0.37841797 136.54129028 -0.3817749 C140.3201134 -0.3854958 144.09871088 -0.40046272 147.87747192 -0.42230225 C152.70423237 -0.44982731 157.53066676 -0.45794835 162.35749841 -0.4522891 C164.12473193 -0.45347173 165.89197735 -0.46135132 167.65914321 -0.47686052 C183.05904697 -0.60568791 194.18941261 2.85056168 206 13 C208.1328125 15.515625 208.1328125 15.515625 210.125 18.25 C210.78757812 19.14203125 211.45015625 20.0340625 212.1328125 20.953125 C216.55024805 28.16149263 217.50726677 34.55829345 217.6875 42.9375 C217.71803467 44.0519751 217.74856934 45.1664502 217.7800293 46.31469727 C217.85897563 49.70938968 217.91730892 53.10330442 217.9642334 56.49853516 C218.00408323 59.28557529 218.05158516 62.07244739 218.09863281 64.859375 C218.18562844 70.28497517 218.24308888 75.71037078 218.28408813 81.13650513 C218.30289335 83.32136372 218.32800784 85.50617794 218.35971069 87.69088745 C218.66629651 110.29689856 218.66629651 110.29689856 214 120 C213.34 120 212.68 120 212 120 C211.6596875 121.0209375 211.6596875 121.0209375 211.3125 122.0625 C206.51934777 132.79003117 197.42001453 138.32895901 187 143 C183.27335242 144.25589665 179.65611889 144.09866777 175.75 144.0625 C174.48671875 144.05347656 173.2234375 144.04445313 171.921875 144.03515625 C170.95765625 144.02355469 169.9934375 144.01195312 169 144 C173.27482317 149.40669125 177.5516997 154.69133427 182.5 159.5 C186.49937376 163.40283716 189.99298947 167.5559344 193.484375 171.9140625 C195.8743373 174.84584855 198.32201476 177.71050401 200.80883789 180.55981445 C201.93601738 181.852971 203.05762285 183.1510074 204.17358398 184.45385742 C206.64867814 187.34043003 209.12627284 190.16681241 211.83203125 192.83984375 C216.2819648 197.50001038 218.43277082 200.73883024 218.32409668 207.1763916 C218.29319946 207.89290894 218.26230225 208.60942627 218.23046875 209.34765625 C218.21383179 210.08568481 218.19719482 210.82371338 218.18005371 211.58410645 C218.13693714 213.38988701 218.07080942 215.19509321 218 217 C211.26156565 217.38367298 204.52598086 217.64429291 197.77905273 217.82397461 C195.49022257 217.89893102 193.20209922 218.00094919 190.91577148 218.1315918 C170.88707815 219.24648304 170.88707815 219.24648304 164.67089844 213.78100586 C161.78332622 210.7047185 159.39748223 207.39359664 157.16453552 203.82022095 C155.52832053 201.26274396 153.5942582 198.99313876 151.625 196.6875 C149.21390092 193.64242663 146.98225368 190.53281568 144.8125 187.3125 C141.1977478 182.04789531 137.04635143 177.3270822 132.83813477 172.53735352 C129.72992972 168.99900909 126.68088232 165.43856532 123.75 161.75 C122.87842506 160.67532219 122.87842506 160.67532219 121.98924255 159.57893372 C120 157 120 157 118.20350647 154.17533875 C115.19654009 149.78559547 112.87124354 146.56023328 107.64816284 144.99649048 C103.61990283 144.63232324 99.72056475 144.60120903 95.68359375 144.70703125 C94.39521606 144.69845093 93.10683838 144.68987061 91.77941895 144.68103027 C86.99860487 144.66513502 82.21785509 144.74437442 77.4375 144.8125 C61.3809375 144.9053125 61.3809375 144.9053125 45 145 C45 168.76 45 192.52 45 217 C30.15 217 15.3 217 0 217 C0 145.39 0 73.78 0 0 Z " fill="#FD6D08" transform="translate(518,390)"/>
<path d="M0 0 C1.45282799 0.01479768 2.90567221 0.02806927 4.35852718 0.03992462 C7.393525 0.06677894 10.42825692 0.10192105 13.46308517 0.14370728 C17.85427502 0.20239826 22.24522992 0.23200459 26.63674927 0.25170898 C28.06844881 0.25835058 29.50014825 0.26501621 30.93184757 0.27170563 C31.64414685 0.27503308 32.35644614 0.27836054 33.09033024 0.28178883 C36.78523528 0.30079158 40.48008452 0.32710422 44.17494202 0.3536377 C44.92404097 0.35900402 45.67313992 0.36437034 46.44493884 0.36989927 C47.98104549 0.38093829 49.51715193 0.39200583 51.05325818 0.40310097 C55.08497373 0.43196755 59.11669848 0.45949232 63.14842224 0.48718262 C70.7228052 0.53939634 78.29717964 0.59275021 85.87155145 0.64655447 C94.52027162 0.70793174 103.16900089 0.76797591 111.81773102 0.8279295 C129.55305822 0.95090074 147.28837228 1.07565234 165.02368164 1.20117188 C165.02368164 15.72117187 165.02368164 30.24117188 165.02368164 45.20117188 C159.98570312 45.21051758 154.94772461 45.21986328 149.75708008 45.22949219 C133.14085902 45.26320811 116.52476229 45.31852465 99.90864182 45.38507462 C89.83093748 45.42490673 79.75331171 45.45727799 69.67553711 45.47216797 C60.89311454 45.48516289 52.11086453 45.51207214 43.32853913 45.55578494 C38.67708205 45.57844848 34.02583818 45.59407964 29.37432098 45.59305573 C24.99773369 45.59231199 20.62161859 45.61014678 16.24515343 45.64233971 C14.63752329 45.65087075 13.02984039 45.65256698 11.42219734 45.64697456 C9.22913123 45.64036083 7.03757911 45.65818893 4.84466553 45.68218994 C3.00292315 45.6877207 3.00292315 45.6877207 1.12397385 45.69336319 C-2.03670593 45.97472188 -2.03670593 45.97472188 -4.37088394 47.92524338 C-6.24979141 50.58885829 -6.47859359 51.90291153 -6.48425293 55.13500977 C-6.50117188 56.62389206 -6.50117188 56.62389206 -6.51843262 58.14285278 C-6.51033569 59.22557465 -6.50223877 60.30829651 -6.49389648 61.42382812 C-6.50090576 62.56890839 -6.50791504 63.71398865 -6.51513672 64.89376831 C-6.53276134 68.68398186 -6.52107728 72.47345055 -6.50756836 76.26367188 C-6.51026197 78.89396305 -6.51414328 81.52425326 -6.51916504 84.15454102 C-6.52644008 89.66919037 -6.51685773 95.18362538 -6.49780273 100.69824219 C-6.47603396 107.07179854 -6.48308545 113.44484308 -6.50510836 119.81838703 C-6.52545407 125.95230709 -6.52329236 132.08600042 -6.51158142 138.21994019 C-6.50890946 140.82909212 -6.51220028 143.43825707 -6.52149963 146.0473938 C-6.53163669 149.69145514 -6.5162021 153.33452807 -6.49389648 156.97851562 C-6.50199341 158.06123749 -6.51009033 159.14395935 -6.51843262 160.25949097 C-6.50715332 161.25207916 -6.49587402 162.24466736 -6.48425293 163.26733398 C-6.48199078 164.55926918 -6.48199078 164.55926918 -6.47968292 165.87730408 C-5.774809 169.13147396 -4.66923403 170.26420958 -1.97631836 172.20117188 C1.22914317 172.80775544 1.22914317 172.80775544 4.88262939 172.72015381 C5.57208389 172.72765506 6.26153839 172.73515631 6.97188544 172.74288487 C9.28144888 172.76318018 11.59003229 172.7550564 13.8996582 172.74707031 C15.55540947 172.75580438 17.21115229 172.76628959 18.86688232 172.77839661 C23.3624368 172.80629776 27.85771642 172.80966039 32.35334492 172.80867672 C37.05127965 172.81180229 41.74908994 172.83741307 46.44696045 172.86065674 C55.34331656 172.90124756 64.23959931 172.92156469 73.13603377 172.93463063 C83.26417384 172.95049025 93.39218889 172.98890148 103.52025652 173.02922392 C124.3547144 173.11166514 145.18909287 173.16275367 166.02368164 173.20117188 C166.02368164 188.05117188 166.02368164 202.90117188 166.02368164 218.20117188 C142.37068938 218.29157256 118.71783767 218.36521232 95.06471634 218.40842056 C84.08141125 218.42901887 73.09822137 218.45708719 62.11499023 218.50292969 C52.53858413 218.54288113 42.9622615 218.56862453 33.38577437 218.57752585 C28.3181765 218.58272653 23.25081734 218.59489293 18.1832962 218.6240921 C13.40625521 218.65139257 8.62954958 218.65958747 3.85243797 218.6536026 C2.10622264 218.65469632 0.35999522 218.66256259 -1.38615227 218.67799377 C-17.12429755 218.81016656 -28.55670324 216.38571639 -40.16772461 205.06445312 C-45.71828218 199.20723491 -49.43260349 193.66535709 -50.42163086 185.54492188 C-51.21890977 177.61621777 -51.21890977 177.61621777 -56.05444336 171.68164062 C-59.22781366 169.85842691 -62.54028914 168.46088587 -65.97631836 167.20117188 C-65.3955788 162.82949351 -63.76470933 159.81825383 -61.47631836 156.07617188 C-58.87024944 151.8043478 -58.87024944 151.8043478 -56.97631836 147.20117188 C-57.51256836 146.96269531 -58.04881836 146.72421875 -58.60131836 146.47851562 C-61.63156328 144.84876219 -64.23916943 142.8473265 -66.97631836 140.76367188 C-68.00756836 139.98121094 -69.03881836 139.19875 -70.10131836 138.39257812 C-71.05006836 137.66941406 -71.99881836 136.94625 -72.97631836 136.20117188 C-74.30859915 135.19977003 -75.64144637 134.19911704 -76.97631836 133.20117188 C-75.44538348 128.52918096 -72.86874441 125.17947183 -69.85131836 121.38867188 C-69.38338867 120.79119141 -68.91545898 120.19371094 -68.43334961 119.578125 C-67.28626271 118.11500396 -66.13200602 116.65750891 -64.97631836 115.20117188 C-69.09251672 110.28181285 -73.38042198 105.67469231 -77.97631836 101.20117188 C-76.63632338 98.19435388 -75.17786545 96.20354579 -72.78881836 93.95117188 C-69.64695763 90.9064821 -66.77489802 87.73541931 -63.97583008 84.37426758 C-61.97631836 82.20117188 -61.97631836 82.20117188 -59.68652344 80.4074707 C-55.67447248 77.1400854 -53.2987594 74.694604 -52.1862793 69.54199219 C-51.83195059 65.28161436 -51.92509467 61.03279325 -52.03881836 56.76367188 C-52.06672143 53.86912895 -52.07216992 50.97474355 -52.07397461 48.08007812 C-52.07819679 47.04028053 -52.07819679 47.04028053 -52.08250427 45.97947693 C-52.0530645 33.6868492 -48.22458272 21.35023521 -39.66381836 12.20117188 C-27.81699074 1.75274484 -15.38320952 -0.28025436 0 0 Z " fill="#FD6C08" transform="translate(322.976318359375,388.798828125)"/>
<path d="M0 0 C1.6027906 -0.00422974 1.6027906 -0.00422974 3.23796082 -0.00854492 C4.42033829 -0.00652069 5.60271576 -0.00449646 6.82092285 -0.00241089 C8.05816605 -0.00416321 9.29540924 -0.00591553 10.57014465 -0.00772095 C13.97295789 -0.01137922 17.37571068 -0.01050598 20.77852058 -0.00734186 C24.33216562 -0.00481795 27.88580799 -0.00715589 31.43945312 -0.00872803 C37.40824856 -0.01054963 43.37703164 -0.00814366 49.3458252 -0.00338745 C56.25600916 0.00205515 63.16616362 0.00029249 70.07634687 -0.00521386 C75.99905383 -0.00974525 81.92175188 -0.01039541 87.84446001 -0.00777519 C91.38631709 -0.00621256 94.92816028 -0.00601826 98.47001648 -0.00931168 C102.41642411 -0.01272464 106.36279843 -0.00800022 110.3092041 -0.00241089 C112.08277031 -0.00544724 112.08277031 -0.00544724 113.89216614 -0.00854492 C115.49495674 -0.00431519 115.49495674 -0.00431519 117.13012695 0 C118.06444801 0.00037703 118.99876907 0.00075405 119.96140289 0.0011425 C122.06506348 0.12698364 122.06506348 0.12698364 123.06506348 1.12698364 C123.16381517 2.80953599 123.19305252 4.49622393 123.19445801 6.18167114 C123.19761017 7.25948853 123.20076233 8.33730591 123.20401001 9.44778442 C123.20097366 11.20711304 123.20097366 11.20711304 123.19787598 13.00198364 C123.1988327 14.19678345 123.19978943 15.39158325 123.20077515 16.62258911 C123.20145719 19.15465345 123.19960125 21.68671952 123.19543457 24.21878052 C123.19008669 28.11009624 123.1953788 32.00129654 123.20178223 35.89260864 C123.20112145 38.3457339 123.1998403 40.79885908 123.19787598 43.25198364 C123.19990021 44.42486938 123.20192444 45.59775513 123.20401001 46.80618286 C123.19928177 48.42290894 123.19928177 48.42290894 123.19445801 50.07229614 C123.19366241 51.02636353 123.19286682 51.98043091 123.19204712 52.96340942 C123.06506348 55.12698364 123.06506348 55.12698364 122.06506348 56.12698364 C120.42247647 56.22524333 118.77565015 56.25330327 117.13012695 56.25396729 C116.06159988 56.25678711 114.99307281 56.25960693 113.89216614 56.26251221 C112.70978867 56.26048798 111.52741119 56.25846375 110.3092041 56.25637817 C109.07196091 56.25813049 107.83471771 56.25988281 106.5599823 56.26168823 C103.15716906 56.26534651 99.75441628 56.26447327 96.35160637 56.26130915 C92.79796133 56.25878523 89.24431896 56.26112317 85.69067383 56.26269531 C79.7218784 56.26451692 73.75309532 56.26211094 67.78430176 56.25735474 C60.87411779 56.25191213 53.96396333 56.25367479 47.05378008 56.25918114 C41.13107312 56.26371254 35.20837507 56.26436269 29.28566694 56.26174247 C25.74380986 56.26017984 22.20196667 56.25998555 18.66011047 56.26327896 C14.71370285 56.26669193 10.76732852 56.26196751 6.82092285 56.25637817 C5.04735664 56.25941452 5.04735664 56.25941452 3.23796082 56.26251221 C2.16943375 56.25969238 1.10090668 56.25687256 0 56.25396729 C-0.93432106 56.25359026 -1.86864212 56.25321323 -2.83127594 56.25282478 C-4.93493652 56.12698364 -4.93493652 56.12698364 -5.93493652 55.12698364 C-6.03368822 53.4444313 -6.06292557 51.75774336 -6.06433105 50.07229614 C-6.06748322 48.99447876 -6.07063538 47.91666138 -6.07388306 46.80618286 C-6.07185883 45.63329712 -6.06983459 44.46041138 -6.06774902 43.25198364 C-6.06870575 42.05718384 -6.06966248 40.86238403 -6.07064819 39.63137817 C-6.07133023 37.09931384 -6.0694743 34.56724777 -6.06530762 32.03518677 C-6.05995973 28.14387104 -6.06525185 24.25267075 -6.07165527 20.36135864 C-6.0709945 17.90823339 -6.06971334 15.4551082 -6.06774902 13.00198364 C-6.06977325 11.8290979 -6.07179749 10.65621216 -6.07388306 9.44778442 C-6.0707309 8.36996704 -6.06757874 7.29214966 -6.06433105 6.18167114 C-6.06353546 5.22760376 -6.06273987 4.27353638 -6.06192017 3.29055786 C-5.82090736 -0.81586935 -3.58227775 0.00144555 0 0 Z " fill="#9B879B" transform="translate(567.9349365234375,433.8730163574219)"/>
<path d="M0 0 C2.82458334 1.29477643 4.96221779 2.6825616 7.22265625 4.80859375 C8.14014648 5.66807617 8.14014648 5.66807617 9.07617188 6.54492188 C9.73166016 7.16947266 10.38714844 7.79402344 11.0625 8.4375 C11.75279297 9.08912109 12.44308594 9.74074219 13.15429688 10.41210938 C19.67882802 16.61128545 26.03753176 22.97583029 32.35180664 29.38842773 C35.77637851 32.85198624 39.20632927 36.23648945 42.90625 39.40625 C49.02274154 44.66279917 54.56482914 50.52271765 60.22265625 56.26171875 C64.05486605 60.12739763 67.86411087 63.95793924 72 67.5 C78.09140264 72.71680287 83.59653402 78.5548774 89.22265625 84.26171875 C93.78333654 88.86223031 98.36495009 93.33328416 103.32617188 97.50219727 C105.86624266 99.77514567 107.90559832 102.31654785 110 105 C107.99875639 104.67421616 105.99897128 104.33944795 104 104 C102.7934375 103.9071875 102.7934375 103.9071875 101.5625 103.8125 C98.46586338 102.83063961 96.78812531 101.05124057 94.4296875 98.88671875 C90.4761177 95.81666375 86.07886976 93.54080006 81.6862793 91.16015625 C78.24955351 89.29282611 75.10762615 87.38938762 72 85 C70.3504229 84.30717762 68.69999119 83.61622776 67.04296875 82.94140625 C63.73193508 81.41567181 60.70106064 79.44026272 57.59765625 77.53515625 C55.14900721 76.0880599 52.68183673 74.80603375 50.125 73.5625 C45.21714946 71.17050344 40.54509251 68.4472039 35.859375 65.6484375 C33.86185911 64.49686413 31.824485 63.41295149 29.76171875 62.3828125 C27 61 27 61 25.0625 59.5 C22.95743209 57.84503719 22.95743209 57.84503719 20.01171875 56.76953125 C15.02001614 54.67313241 10.42223553 51.90655359 5.75 49.1875 C3.87544957 48.10599124 2.00045416 47.02525334 0.125 45.9453125 C-0.76445312 45.43258789 -1.65390625 44.91986328 -2.5703125 44.39160156 C-6.25033182 42.28387345 -9.96382316 40.24750674 -13.70703125 38.25390625 C-15.33180277 37.36540257 -16.93163578 36.43058653 -18.51171875 35.46484375 C-19.31222656 34.98144531 -20.11273438 34.49804688 -20.9375 34 C-21.62714844 33.566875 -22.31679688 33.13375 -23.02734375 32.6875 C-25.0018737 31.75739088 -25.0018737 31.75739088 -26.91825867 32.7671814 C-29.02976508 34.01762704 -30.55099827 35.3035014 -32.28051758 37.03759766 C-32.89828568 37.65228912 -33.51605377 38.26698059 -34.15254211 38.90029907 C-34.80989853 39.564841 -35.46725494 40.22938293 -36.14453125 40.9140625 C-36.83254318 41.60253265 -37.52055511 42.29100281 -38.22941589 43.00033569 C-39.68502068 44.45895983 -41.13819597 45.92001191 -42.58911133 47.38330078 C-44.78878304 49.60108772 -46.99620887 51.81090877 -49.20507812 54.01953125 C-50.62286572 55.44224022 -52.04019781 56.86540331 -53.45703125 58.2890625 C-54.10831497 58.94145905 -54.75959869 59.59385559 -55.43061829 60.26602173 C-59.20445204 64.07824126 -62.78064453 68.00589481 -66.28865051 72.06304932 C-68.98989619 75.12039073 -71.8570656 78.00008211 -74.74609375 80.87890625 C-75.36090103 81.49467026 -75.97570831 82.11043427 -76.60914612 82.74485779 C-77.89779025 84.03417642 -79.18767388 85.32225733 -80.47875977 86.60913086 C-82.43295624 88.5579687 -84.38175147 90.51209272 -86.33007812 92.46679688 C-91.90039914 98.03947403 -97.45498064 103.54797952 -103.46264648 108.65405273 C-105.60398734 110.52878866 -107.45813662 112.59462773 -109.3125 114.75 C-112.72791734 118.61013314 -116.20713868 122.38048023 -119.8125 126.0625 C-120.70582031 126.98160156 -121.59914063 127.90070313 -122.51953125 128.84765625 C-124.9193527 130.930021 -125.98986848 131.45751476 -129 132 C-130.03145371 133.30915279 -131.03542166 134.64082143 -132 136 C-132.66 136 -133.32 136 -134 136 C-133.31646635 132.55057468 -131.96540332 129.81595188 -130.296875 126.73046875 C-129.73540771 125.68874512 -129.17394043 124.64702148 -128.59545898 123.57373047 C-127.98645752 122.45627441 -127.37745605 121.33881836 -126.75 120.1875 C-126.11452108 119.01456348 -125.4791878 117.84154805 -124.84399414 116.66845703 C-120.26888056 108.23962782 -115.57350622 99.88107762 -110.82714844 91.54760742 C-106.96109713 84.74572218 -103.20731603 77.88954483 -99.5 71 C-94.74464478 62.16362564 -89.86420838 53.40852886 -84.89916992 44.68847656 C-80.19254778 36.3984116 -75.64397974 28.02684861 -71.13671875 19.62695312 C-70.36714844 18.19512695 -70.36714844 18.19512695 -69.58203125 16.734375 C-69.13061768 15.89100586 -68.6792041 15.04763672 -68.21411133 14.17871094 C-67 12 -67 12 -65 9 C-59.89545207 9.5537478 -56.03424443 12.02592796 -51.6875 14.5625 C-50.94693359 14.98724609 -50.20636719 15.41199219 -49.44335938 15.84960938 C-47.62531882 16.89351653 -45.81216252 17.94592192 -44 19 C-43.76539063 18.46890625 -43.53078125 17.9378125 -43.2890625 17.390625 C-41.61297088 14.2822369 -39.51548074 11.54600297 -37.375 8.75 C-36.95476562 8.19570312 -36.53453125 7.64140625 -36.1015625 7.0703125 C-35.07061281 5.71133337 -34.03570089 4.35536165 -33 3 C-28.6426774 4.47130373 -25.28065866 6.83080615 -21.6875 9.625 C-21.13771484 10.04523438 -20.58792969 10.46546875 -20.02148438 10.8984375 C-18.67707832 11.92720039 -17.33798587 12.9629009 -16 14 C-11.67495164 12.34136495 -8.90581175 9.128959 -5.75 5.875 C-4.91855469 5.03001953 -4.91855469 5.03001953 -4.0703125 4.16796875 C-2.70895515 2.78313972 -1.35385141 1.39216796 0 0 Z M-127 128 C-126 130 -126 130 -126 130 Z " fill="#CA74A6" transform="translate(499,225)"/>
<path d="M0 0 C0.33 0.66 0.66 1.32 1 2 C2.72672836 2.68945799 2.72672836 2.68945799 4.83984375 3.23828125 C10.83523956 5.12587466 16.10115194 8.11888021 21.5625 11.1875 C22.57119141 11.74630859 23.57988281 12.30511719 24.61914062 12.88085938 C27.08325444 14.24721633 29.54332068 15.62033503 32 17 C32 17.66 32 18.32 32 19 C32.7425 19.12375 33.485 19.2475 34.25 19.375 C36.80141485 19.95486701 38.7267573 20.73708739 41 22 C41 22.66 41 23.32 41 24 C41.70366699 24.1016748 42.40733398 24.20334961 43.13232422 24.30810547 C46.43969714 25.10608732 48.91430224 26.40755165 51.8828125 28.0703125 C52.44591629 28.38320221 53.00902008 28.69609192 53.58918762 29.01846313 C55.43803841 30.04770272 57.28143088 31.08633445 59.125 32.125 C60.42354096 32.84994439 61.72245631 33.57421855 63.02172852 34.29785156 C65.70054206 35.79109639 68.37727009 37.28797763 71.05224609 38.78808594 C77.00470205 42.12544618 82.97175562 45.4364675 88.9375 48.75 C90.03505615 49.36061279 91.1326123 49.97122559 92.26342773 50.6003418 C102.80824794 56.46275689 113.39625286 62.2449818 124 68 C124 68.66 124 69.32 124 70 C125.11375 70.185625 125.11375 70.185625 126.25 70.375 C128.80141485 70.95486701 130.7267573 71.73708739 133 73 C133 73.66 133 74.32 133 75 C133.70640625 75.09925781 134.4128125 75.19851563 135.140625 75.30078125 C138.45022661 76.1100964 140.8294642 77.43749641 143.75 79.1875 C144.80058594 79.8165625 145.85117187 80.445625 146.93359375 81.09375 C150.32718158 83.20339441 153.65024268 85.3964015 156.953125 87.64453125 C159.88740953 89.58765478 162.92123734 91.2968547 166 93 C165.38758897 96.50146873 164.03454923 98.560028 161.83984375 101.328125 C161.21142578 102.12734375 160.58300781 102.9265625 159.93554688 103.75 C159.27619141 104.575 158.61683594 105.4 157.9375 106.25 C157.27427734 107.09046875 156.61105469 107.9309375 155.92773438 108.796875 C154.29098003 110.86931216 152.64827565 112.93672284 151 115 C145.85238887 113.07373826 142.50594313 110.19243995 138.40234375 106.58203125 C136.20736103 104.84226698 136.20736103 104.84226698 134.05078125 104.9140625 C130.92491536 106.56928291 128.661189 109.02790369 126.25 111.5625 C125.74339844 112.08263672 125.23679687 112.60277344 124.71484375 113.13867188 C123.46965595 114.41910084 122.23388498 115.70867554 121 117 C117.51345524 115.5158627 115.35808928 113.53785948 112.75 110.8125 C110.05987073 108.00946385 107.30828488 105.37980127 104.359375 102.85546875 C98.1686595 97.4917738 92.52415141 91.56753952 86.77734375 85.73828125 C82.94513395 81.87260237 79.13588913 78.04206076 75 74.5 C68.90859736 69.28319713 63.40346598 63.4451226 57.77734375 57.73828125 C53.94513395 53.87260237 50.13588913 50.04206076 46 46.5 C39.90859736 41.28319713 34.40346598 35.4451226 28.77734375 29.73828125 C24.23334626 25.1545982 19.64937972 20.72189201 14.74658203 16.52392578 C12.26482018 14.35854173 9.98699268 12.04567192 7.6875 9.6875 C5.17194159 7.10875645 3.00332365 5.00221576 0 3 C0 2.01 0 1.02 0 0 Z " fill="#34686C" transform="translate(389,627)"/>
<path d="M0 0 C10.08929184 4.84696023 19.87833539 10.11695591 29.60083008 15.66137695 C37.44729961 20.13356648 45.33719313 24.52180753 53.25 28.875 C55.72406126 30.23679224 58.19799919 31.59880839 60.671875 32.9609375 C61.5906115 33.46672333 61.5906115 33.46672333 62.52790833 33.98272705 C69.97286016 38.08338261 77.39879596 42.21820855 84.82617188 46.35058594 C90.65409851 49.5911581 96.48654902 52.82317776 102.328125 56.0390625 C102.94154251 56.37677673 103.55496002 56.71449097 104.18696594 57.06243896 C105.42579861 57.74443087 106.66463426 58.42641737 107.9034729 59.10839844 C120.98895029 66.31258015 134.01669342 73.61278076 147 81 C146.42282622 84.71286417 145.40601794 87.41741796 143.49609375 90.64453125 C143.00302734 91.48564453 142.50996094 92.32675781 142.00195312 93.19335938 C141.22754883 94.48983398 141.22754883 94.48983398 140.4375 95.8125 C139.91736328 96.69615234 139.39722656 97.57980469 138.86132812 98.49023438 C137.5805605 100.66401428 136.2933166 102.83367087 135 105 C138.13666712 108.31938559 141.58007057 111.05462121 145.25 113.75 C145.80429687 114.16121094 146.35859375 114.57242188 146.9296875 114.99609375 C148.28427052 116.00035358 149.64183224 117.00059353 151 118 C149.55797524 122.15151338 147.4989562 125.29978445 144.875 128.8125 C144.15054688 129.78832031 143.42609375 130.76414062 142.6796875 131.76953125 C141.84824219 132.87361328 141.84824219 132.87361328 141 134 C145.40843437 139.29012124 150.07559794 144.18808428 155 149 C153.66000502 152.006818 152.20154709 153.99762609 149.8125 156.25 C147.35362697 158.57642788 145.11686396 161.00938901 142.91796875 163.578125 C137.52864334 169.78605492 131.5888492 175.45484032 125.73828125 181.22265625 C121.88263642 185.04491887 118.05990795 188.84331157 114.52734375 192.96875 C109.99636733 198.25957961 105.00700897 203.10000589 100.0625 208 C99.0824469 208.97502386 98.1026276 209.9502828 97.12304688 210.92578125 C94.75097687 213.28616618 92.3765914 215.64416905 90 218 C86.6332308 215.26037408 83.44276801 212.62971366 80.625 209.3125 C79.87089844 208.44044922 79.87089844 208.44044922 79.1015625 207.55078125 C78 206 78 206 78 204 C79.35931641 203.94392578 79.35931641 203.94392578 80.74609375 203.88671875 C92.33216536 203.26143869 99.53785766 201.51913567 108.8359375 194.5234375 C111 193 111 193 114 192 C115.09192278 190.17131715 115.09192278 190.17131715 116 188 C116.81320258 186.57168265 117.64674108 185.15475553 118.5 183.75 C118.9228125 183.04359375 119.345625 182.3371875 119.78125 181.609375 C120.1834375 181.07828125 120.585625 180.5471875 121 180 C121.66 180 122.32 180 123 180 C123.12375 179.319375 123.2475 178.63875 123.375 177.9375 C124 175 124 175 125.0246582 171.96972656 C126.39426773 167.19552997 126.26746174 162.47970063 126.23046875 157.546875 C126.23055435 156.54123001 126.23063995 155.53558502 126.23072815 154.49946594 C126.22745975 151.24950339 126.20865889 147.99989195 126.1875 144.75 C126.17796712 142.52010131 126.16852724 140.29020221 126.15917969 138.06030273 C126.12655151 131.70661965 126.06660094 125.35340384 126 119 C125.9926886 118.17389221 125.9853772 117.34778442 125.97784424 116.49664307 C125.93783429 112.01733105 125.8616613 107.54074036 125.75 103.0625 C125.73606201 102.04961914 125.72212402 101.03673828 125.70776367 99.99316406 C125.3351045 89.26279933 121.32143335 80.78557329 114 73 C104.28441321 64.11256094 92.76655192 59.66548284 79.64453125 60.078125 C59.44577476 60.70878615 59.44577476 60.70878615 52.51855469 54.68676758 C50.12293031 52.23260848 47.88075747 49.69439652 45.71240234 47.03759766 C42.72790956 43.48633207 39.37130642 40.308099 36.0625 37.0625 C34.81543116 35.80826043 33.56929395 34.55309367 32.32421875 33.296875 C27.93736138 28.91125094 23.38639257 24.8043456 18.4375 21.0625 C15.57768595 18.64265734 13.27152791 15.9429615 10.83984375 13.1015625 C6.01001766 7.32944042 6.01001766 7.32944042 0 3 C0 2.01 0 1.02 0 0 Z " fill="#9CDCE3" transform="translate(609,330)"/>
<path d="M0 0 C-1.37404207 3.60528468 -2.97292946 6.97060125 -4.80078125 10.3671875 C-5.35902588 11.40568848 -5.91727051 12.44418945 -6.49243164 13.51416016 C-7.0930542 14.6232373 -7.69367676 15.73231445 -8.3125 16.875 C-8.93697021 18.03177246 -9.56144043 19.18854492 -10.20483398 20.38037109 C-14.75882018 28.7961497 -19.43715468 37.13799841 -24.1730957 45.45263672 C-28.03890049 52.25453283 -31.79273636 59.11055252 -35.5 66 C-40.25893372 74.84302391 -45.14368228 83.60432951 -50.11181641 92.33129883 C-54.69588198 100.4064346 -59.11715557 108.56432562 -63.51831055 116.74023438 C-67.2076864 123.5794669 -70.98621649 130.34441716 -75 137 C-80.32469924 136.48677598 -84.38447682 133.68154678 -88.875 131 C-90.12180542 130.26656372 -90.12180542 130.26656372 -91.39379883 129.51831055 C-93.9342532 128.02054195 -96.46802364 126.5120493 -99 125 C-99.77553223 124.53803223 -100.55106445 124.07606445 -101.35009766 123.60009766 C-105.57550288 121.08112386 -109.79178205 118.54757589 -114 116 C-111.3055955 110.38566816 -107.3956771 106.35357676 -103 102 C-102.18700439 101.19224121 -101.37400879 100.38448242 -100.53637695 99.55224609 C-99.69550537 98.71773926 -98.85463379 97.88323242 -97.98828125 97.0234375 C-96.57886924 95.62091989 -95.16946474 94.21839465 -93.76049805 92.81542969 C-92.79067565 91.85067633 -91.81996361 90.88681652 -90.84838867 89.92382812 C-89.43433389 88.52189993 -88.02375814 87.11646535 -86.61328125 85.7109375 C-85.77579346 84.87868652 -84.93830566 84.04643555 -84.07543945 83.18896484 C-81.86541181 80.98223158 -81.86541181 80.98223158 -80 78 C-79.34 78 -78.68 78 -78 78 C-77.73454376 77.40955399 -77.46908752 76.81910797 -77.19558716 76.21076965 C-75.96526775 73.93577633 -74.69591925 72.4483351 -72.87060547 70.62768555 C-71.91853714 69.67100227 -71.91853714 69.67100227 -70.94723511 68.69499207 C-70.2608194 68.01576187 -69.57440369 67.33653168 -68.8671875 66.63671875 C-68.1565213 65.92651077 -67.4458551 65.2163028 -66.71365356 64.48457336 C-65.20795094 62.98189043 -63.69982002 61.48163732 -62.18945312 59.98364258 C-59.89923697 57.71154523 -57.61698689 55.43168678 -55.3359375 53.15039062 C-53.86765572 51.68703005 -52.39891977 50.22412502 -50.9296875 48.76171875 C-50.25541718 48.08856125 -49.58114685 47.41540375 -48.88644409 46.72184753 C-44.95737176 42.83112578 -40.92648795 39.11459212 -36.72947693 35.51396179 C-33.62804064 32.79900447 -30.82885663 29.79473525 -27.98046875 26.8203125 C-26 25 -26 25 -23 24 C-21.32135365 21.88593822 -21.32135365 21.88593822 -19.625 19.25 C-16.16428519 14.33655975 -12.37379937 10.06012534 -8.125 5.8125 C-7.55346191 5.2359668 -6.98192383 4.65943359 -6.39306641 4.06542969 C-2.25975614 0 -2.25975614 0 0 0 Z " fill="#7B3A7A" transform="translate(654,596)"/>
<path d="M0 0 C3.49675113 0.56354963 6.11207807 1.41519329 9.15234375 3.22265625 C9.92280029 3.67535889 10.69325684 4.12806152 11.48706055 4.59448242 C12.29570557 5.07892822 13.10435059 5.56337402 13.9375 6.0625 C15.62999007 7.06026616 17.32270056 8.05765852 19.015625 9.0546875 C19.85287109 9.5506543 20.69011719 10.04662109 21.55273438 10.55761719 C25.07811806 12.63542712 28.63030852 14.66478328 32.1875 16.6875 C33.31542969 17.33074219 34.44335938 17.97398437 35.60546875 18.63671875 C36.39566406 19.08660156 37.18585938 19.53648437 38 20 C37.41704322 23.36092488 36.38672176 24.97956573 33.96826172 27.35644531 C33.33024628 27.99100647 32.69223083 28.62556763 32.03488159 29.27935791 C31.34016754 29.95545105 30.64545349 30.63154419 29.9296875 31.328125 C29.21523468 32.0359613 28.50078186 32.74379761 27.76467896 33.4730835 C25.47509693 35.73925249 23.17564114 37.99506377 20.875 40.25 C18.59746529 42.49228025 16.32213874 44.7367353 14.04959106 46.98406982 C12.63593261 48.38098491 11.21918979 49.77478833 9.79879761 51.16485596 C5.91368377 54.99225681 2.26015731 58.9379941 -1.30004883 63.06826782 C-3.99287368 66.12824772 -6.85967643 69.00268372 -9.74609375 71.87890625 C-10.36090103 72.49467026 -10.97570831 73.11043427 -11.60914612 73.74485779 C-12.89779025 75.03417642 -14.18767388 76.32225733 -15.47875977 77.60913086 C-17.43295624 79.5579687 -19.38175147 81.51209272 -21.33007812 83.46679688 C-26.90039914 89.03947403 -32.45498064 94.54797952 -38.46264648 99.65405273 C-40.60398734 101.52878866 -42.45813662 103.59462773 -44.3125 105.75 C-47.72791734 109.61013314 -51.20713868 113.38048023 -54.8125 117.0625 C-55.70582031 117.98160156 -56.59914063 118.90070313 -57.51953125 119.84765625 C-59.9193527 121.930021 -60.98986848 122.45751476 -64 123 C-65.03145371 124.30915279 -66.03542166 125.64082143 -67 127 C-67.66 127 -68.32 127 -69 127 C-68.31646635 123.55057468 -66.96540332 120.81595188 -65.296875 117.73046875 C-64.73540771 116.68874512 -64.17394043 115.64702148 -63.59545898 114.57373047 C-62.98645752 113.45627441 -62.37745605 112.33881836 -61.75 111.1875 C-61.11452108 110.01456348 -60.4791878 108.84154805 -59.84399414 107.66845703 C-55.26888056 99.23962782 -50.57350622 90.88107762 -45.82714844 82.54760742 C-41.96109713 75.74572218 -38.20731603 68.88954483 -34.5 62 C-29.74464478 53.16362564 -24.86420838 44.40852886 -19.89916992 35.68847656 C-15.19254778 27.3984116 -10.64397974 19.02684861 -6.13671875 10.62695312 C-5.62367188 9.67240234 -5.110625 8.71785156 -4.58203125 7.734375 C-3.90491089 6.46932129 -3.90491089 6.46932129 -3.21411133 5.17871094 C-2 3 -2 3 0 0 Z M-62 119 C-61 121 -61 121 -61 121 Z " fill="#96C1D2" transform="translate(434,234)"/>
<path d="M0 0 C1.98 0.66 3.96 1.32 6 2 C6 2.66 6 3.32 6 4 C7.32 4.33 8.64 4.66 10 5 C10 5.66 10 6.32 10 7 C10.66 7.20625 11.32 7.4125 12 7.625 C16.07180186 9.49124252 19.68796998 11.97561527 23 15 C23 15.66 23 16.32 23 17 C24.32 17.33 25.64 17.66 27 18 C27 18.66 27 19.32 27 20 C27.53625 20.061875 28.0725 20.12375 28.625 20.1875 C31.41971596 21.14358704 33.21147653 22.72683898 35.40625 24.6640625 C36.99454914 25.99543089 38.62104246 27.08713985 40.375 28.1875 C41.24125 28.785625 42.1075 29.38375 43 30 C43 30.66 43 31.32 43 32 C44.32 32.33 45.64 32.66 47 33 C47 33.66 47 34.32 47 35 C47.99 35 48.98 35 50 35 C50.33 35.66 50.66 36.32 51 37 C51.99 37.33 52.98 37.66 54 38 C54 38.66 54 39.32 54 40 C54.556875 40.268125 55.11375 40.53625 55.6875 40.8125 C58.21225334 42.10899496 60.63714484 43.42476323 63 45 C63 45.66 63 46.32 63 47 C64.98 47.495 64.98 47.495 67 48 C67 48.66 67 49.32 67 50 C68.98 50.495 68.98 50.495 71 51 C71 51.66 71 52.32 71 53 C72.98 53.495 72.98 53.495 75 54 C75 54.66 75 55.32 75 56 C76.98 56.495 76.98 56.495 79 57 C79 57.66 79 58.32 79 59 C79.66 59.20625 80.32 59.4125 81 59.625 C85.07180186 61.49124252 88.68796998 63.97561527 92 67 C92 67.66 92 68.32 92 69 C93.98 69.495 93.98 69.495 96 70 C96 70.66 96 71.32 96 72 C96.99 72 97.98 72 99 72 C99 72.66 99 73.32 99 74 C100.65 74.66 102.3 75.32 104 76 C104 76.66 104 77.32 104 78 C104.763125 78.28875 105.52625 78.5775 106.3125 78.875 C109 80 109 80 112 82 C112 82.66 112 83.32 112 84 C113.98 84.495 113.98 84.495 116 85 C116 85.66 116 86.32 116 87 C117.98 87.495 117.98 87.495 120 88 C120 88.66 120 89.32 120 90 C120.61875 90.0825 121.2375 90.165 121.875 90.25 C124 91 124 91 126 95 C121.71 99.29 117.42 103.58 113 108 C109.27702139 106.1385107 107.55548726 104.74413327 104.75 101.8125 C102.05987073 99.00946385 99.30828488 96.37980127 96.359375 93.85546875 C90.1686595 88.4917738 84.52415141 82.56753952 78.77734375 76.73828125 C74.94513395 72.87260237 71.13588913 69.04206076 67 65.5 C60.90859736 60.28319713 55.40346598 54.4451226 49.77734375 48.73828125 C45.94513395 44.87260237 42.13588913 41.04206076 38 37.5 C31.90859736 32.28319713 26.40346598 26.4451226 20.77734375 20.73828125 C16.21666346 16.13776969 11.63504991 11.66671584 6.67382812 7.49780273 C4.13375734 5.22485433 2.09440168 2.68345215 0 0 Z " fill="#337965" transform="translate(397,636)"/>
<path d="M0 0 C4.53448501 1.49451191 7.94125958 4.05637181 11.625 7 C16.21947196 10.62493987 16.21947196 10.62493987 21 14 C21 14.66 21 15.32 21 16 C21.53625 16.2475 22.0725 16.495 22.625 16.75 C25.56961058 18.29979504 28.27584714 20.09917123 31 22 C31.93457031 22.6496875 32.86914062 23.299375 33.83203125 23.96875 C35.33830078 25.03609375 35.33830078 25.03609375 36.875 26.125 C37.84179688 26.80820313 38.80859375 27.49140625 39.8046875 28.1953125 C40.52914062 28.79085938 41.25359375 29.38640625 42 30 C42 30.66 42 31.32 42 32 C42.66 32 43.32 32 44 32 C44 32.66 44 33.32 44 34 C44.680625 34.226875 45.36125 34.45375 46.0625 34.6875 C49.6988709 36.31226146 53.02829263 38.32803257 56 41 C56 41.66 56 42.32 56 43 C57.98 43.495 57.98 43.495 60 44 C60 44.66 60 45.32 60 46 C60.66 46.20625 61.32 46.4125 62 46.625 C64.6126661 47.82247196 66.43246704 48.98364172 68.6875 50.7109375 C69.39261719 51.2476709 70.09773437 51.7844043 70.82421875 52.33740234 C71.54222656 52.88605957 72.26023437 53.4347168 73 54 C74.33225026 55.00144247 75.66556203 56.00147455 77 57 C85 63 85 63 86.96875 64.484375 C88.39647894 65.54968044 89.83504215 66.60054401 91.28125 67.640625 C92.37953125 68.43726563 92.37953125 68.43726563 93.5 69.25 C94.1703125 69.72953125 94.840625 70.2090625 95.53125 70.703125 C96.25828125 71.34507812 96.25828125 71.34507812 97 72 C97 72.66 97 73.32 97 74 C98.98 74.495 98.98 74.495 101 75 C101 75.66 101 76.32 101 77 C101.680625 77.226875 102.36125 77.45375 103.0625 77.6875 C106.6988709 79.31226146 110.02829263 81.32803257 113 84 C113 84.66 113 85.32 113 86 C114.65 86.66 116.3 87.32 118 88 C117.01 88.495 117.01 88.495 116 89 C113.64453125 87.671875 113.64453125 87.671875 110.8125 85.75 C106.63387784 82.99862151 102.6196146 80.93183883 98 79 C95.50568826 77.55346887 93.05493831 76.04362351 90.59765625 74.53515625 C88.14900721 73.0880599 85.68183673 71.80603375 83.125 70.5625 C78.21714946 68.17050344 73.54509251 65.4472039 68.859375 62.6484375 C66.86185911 61.49686413 64.824485 60.41295149 62.76171875 59.3828125 C60 58 60 58 58.0625 56.5 C55.95743209 54.84503719 55.95743209 54.84503719 53.01171875 53.76953125 C48.02000787 51.67312893 43.42227058 48.90650539 38.75 46.1875 C36.87283504 45.10470697 34.99523552 44.02266694 33.1171875 42.94140625 C32.22741211 42.42852051 31.33763672 41.91563477 30.42089844 41.38720703 C25.98867597 38.84748455 21.49896278 36.41864239 17 34 C14.93690374 32.87609384 12.87440199 31.75109565 10.8125 30.625 C9.89082031 30.12226563 8.96914063 29.61953125 8.01953125 29.1015625 C7.35308594 28.73804688 6.68664062 28.37453125 6 28 C6 27.34 6 26.68 6 26 C4.69675781 25.61714844 4.69675781 25.61714844 3.3671875 25.2265625 C-0.09304519 23.96610651 -2.80561413 22.39630289 -5.875 20.375 C-6.84179688 19.74335938 -7.80859375 19.11171875 -8.8046875 18.4609375 C-9.52914063 17.97882813 -10.25359375 17.49671875 -11 17 C-10.12429445 12.59214242 -7.68803513 9.69289817 -4.9375 6.25 C-4.46505859 5.64800781 -3.99261719 5.04601562 -3.50585938 4.42578125 C-2.34309599 2.94590057 -1.1723234 1.47231904 0 0 Z " fill="#BD8A97" transform="translate(466,228)"/>
<path d="M0 0 C0.96421875 0.55429688 1.9284375 1.10859375 2.921875 1.6796875 C4.19788361 2.41151597 5.47392712 3.1432836 6.75 3.875 C7.70132813 4.42220703 7.70132813 4.42220703 8.671875 4.98046875 C11.74250368 6.7396831 14.80851875 8.46873374 18 10 C17.41704322 13.36092488 16.38672176 14.97956573 13.96826172 17.35644531 C13.33024628 17.99100647 12.69223083 18.62556763 12.03488159 19.27935791 C11.34016754 19.95545105 10.64545349 20.63154419 9.9296875 21.328125 C9.21523468 22.0359613 8.50078186 22.74379761 7.76467896 23.4730835 C5.47509693 25.73925249 3.17564114 27.99506377 0.875 30.25 C-1.40253471 32.49228025 -3.67786126 34.7367353 -5.95040894 36.98406982 C-7.36406739 38.38098491 -8.78081021 39.77478833 -10.20120239 41.16485596 C-14.08631623 44.99225681 -17.73984269 48.9379941 -21.30004883 53.06826782 C-23.99287368 56.12824772 -26.85967643 59.00268372 -29.74609375 61.87890625 C-30.36090103 62.49467026 -30.97570831 63.11043427 -31.60914612 63.74485779 C-32.89779025 65.03417642 -34.18767388 66.32225733 -35.47875977 67.60913086 C-37.43295624 69.5579687 -39.38175147 71.51209272 -41.33007812 73.46679688 C-46.90039914 79.03947403 -52.45498064 84.54797952 -58.46264648 89.65405273 C-60.60398734 91.52878866 -62.45813662 93.59462773 -64.3125 95.75 C-69.30036543 101.41802889 -74.61910431 106.70962405 -80 112 C-80.66 111.67 -81.32 111.34 -82 111 C-79.90173139 106.4560222 -77.34867325 102.59053473 -74.25 98.6875 C-73.58411865 97.83502686 -73.58411865 97.83502686 -72.90478516 96.96533203 C-71.60794968 95.30641446 -70.30487364 93.65259811 -69 92 C-64.6480401 86.45873932 -60.42166048 80.85442407 -56.29296875 75.14453125 C-49.10230068 65.28339361 -41.71519236 55.56465983 -34.25 45.91015625 C-32.82653286 44.06903989 -31.40907082 42.2232513 -30 40.37109375 C-29.401875 39.58863281 -28.80375 38.80617188 -28.1875 38 C-27.68605469 37.34 -27.18460937 36.68 -26.66796875 36 C-25 34 -25 34 -22.8046875 31.90234375 C-18.70432351 27.86902198 -15.39167631 23.14379525 -11.9375 18.5625 C-11.23044922 17.63373047 -10.52339844 16.70496094 -9.79492188 15.74804688 C-3.35421044 8.50982797 -3.35421044 8.50982797 0 0 Z " fill="#97AFB1" transform="translate(454,244)"/>
<path d="M0 0 C0 33.66 0 67.32 0 102 C-4.17437899 100.60854034 -7.19196096 99.49553763 -10.875 97.375 C-12.04675781 96.70597656 -12.04675781 96.70597656 -13.2421875 96.0234375 C-13.82226562 95.68570313 -14.40234375 95.34796875 -15 95 C-14.41926044 90.62832164 -12.78839097 87.61708195 -10.5 83.875 C-7.89393108 79.60317592 -7.89393108 79.60317592 -6 75 C-6.804375 74.64228516 -6.804375 74.64228516 -7.625 74.27734375 C-10.65524492 72.64759031 -13.26285107 70.64615462 -16 68.5625 C-17.03125 67.78003906 -18.0625 66.99757813 -19.125 66.19140625 C-20.07375 65.46824219 -21.0225 64.74507812 -22 64 C-23.3322808 62.99859815 -24.66512801 61.99794516 -26 61 C-24.46906512 56.32800909 -21.89242605 52.97829995 -18.875 49.1875 C-18.17310547 48.2912793 -18.17310547 48.2912793 -17.45703125 47.37695312 C-16.30994435 45.91383208 -15.15568766 44.45633703 -14 43 C-18.11619836 38.08064098 -22.40410362 33.47352044 -27 29 C-25.66000502 25.993182 -24.20154709 24.00237391 -21.8125 21.75 C-19.30476276 19.31966206 -16.95303763 16.84494342 -14.6875 14.1875 C-2.45112967 0 -2.45112967 0 0 0 Z " fill="#33477A" transform="translate(272,461)"/>
<path d="M0 0 C0.33 0 0.66 0 1 0 C1.495 8.91 1.495 8.91 2 18 C3.65 15.36 5.3 12.72 7 10 C11.67199091 11.53093488 15.02170005 14.10757395 18.8125 17.125 C19.40998047 17.59292969 20.00746094 18.06085938 20.62304688 18.54296875 C22.08616792 19.69005565 23.54366297 20.84431234 25 22 C23.55797524 26.15151338 21.4989562 29.29978445 18.875 32.8125 C17.78832031 34.27623047 17.78832031 34.27623047 16.6796875 35.76953125 C16.12539063 36.50558594 15.57109375 37.24164063 15 38 C19.40843437 43.29012124 24.07559794 48.18808428 29 53 C27.66000502 56.006818 26.20154709 57.99762609 23.8125 60.25 C21.35362697 62.57642788 19.11686396 65.00938901 16.91796875 67.578125 C11.52864334 73.78605492 5.5888492 79.45484032 -0.26171875 85.22265625 C-4.11736358 89.04491887 -7.94009205 92.84331157 -11.47265625 96.96875 C-16.00363267 102.25957961 -20.99299103 107.10000589 -25.9375 112 C-26.9175531 112.97502386 -27.8973724 113.9502828 -28.87695312 114.92578125 C-31.24902313 117.28616618 -33.6234086 119.64416905 -36 122 C-39.3667692 119.26037408 -42.55723199 116.62971366 -45.375 113.3125 C-45.87773438 112.73113281 -46.38046875 112.14976562 -46.8984375 111.55078125 C-48 110 -48 110 -48 108 C-46.64068359 107.94392578 -46.64068359 107.94392578 -45.25390625 107.88671875 C-33.66783464 107.26143869 -26.46214234 105.51913567 -17.1640625 98.5234375 C-15 97 -15 97 -12 96 C-10.90807722 94.17131715 -10.90807722 94.17131715 -10 92 C-9.18679742 90.57168265 -8.35325892 89.15475553 -7.5 87.75 C-7.0771875 87.04359375 -6.654375 86.3371875 -6.21875 85.609375 C-5.8165625 85.07828125 -5.414375 84.5471875 -5 84 C-4.34 84 -3.68 84 -3 84 C-2.87625 83.319375 -2.7525 82.63875 -2.625 81.9375 C-2 79 -2 79 -0.97512817 75.77915955 C0.03163981 71.87737827 0.24118637 68.61752188 0.22705078 64.59594727 C0.22734283 63.892668 0.22763489 63.18938873 0.22793579 62.46479797 C0.22655446 60.16520377 0.21105057 57.86594309 0.1953125 55.56640625 C0.1915781 53.96215492 0.18873314 52.35790129 0.18673706 50.75364685 C0.17913422 46.54999392 0.15951484 42.34648119 0.1373291 38.1428833 C0.11679819 33.84592586 0.1077199 29.54894557 0.09765625 25.25195312 C0.0762655 16.83457138 0.04217043 8.41730318 0 0 Z " fill="#C573A3" transform="translate(735,426)"/>
<path d="M0 0 C0 3.61277339 -0.69588935 4.20791969 -2.9375 6.9375 C-5.83377774 10.54032936 -8.66602829 14.17489281 -11.4375 17.875 C-12.1903125 18.87789062 -12.943125 19.88078125 -13.71875 20.9140625 C-16.66722543 24.90258234 -19.52907261 28.95067355 -22.37109375 33.015625 C-22.90863281 33.67046875 -23.44617188 34.3253125 -24 35 C-24.66 35 -25.32 35 -26 35 C-26 35.99 -26 36.98 -26 38 C-26.66 38 -27.32 38 -28 38 C-28.25910156 38.54269531 -28.51820313 39.08539062 -28.78515625 39.64453125 C-30.21267919 42.41236511 -31.79484752 45.0415931 -33.4375 47.6875 C-34.03433594 48.66074219 -34.63117187 49.63398437 -35.24609375 50.63671875 C-37 53 -37 53 -40 54 C-40.268125 54.845625 -40.53625 55.69125 -40.8125 56.5625 C-42.34807987 61.00759962 -44.78944971 64.56261736 -48 68 C-48.66 68 -49.32 68 -50 68 C-50.495 69.98 -50.495 69.98 -51 72 C-51.66 72 -52.32 72 -53 72 C-53.268125 72.56203125 -53.53625 73.1240625 -53.8125 73.703125 C-55.0803979 76.15550646 -56.48972342 78.43927683 -58 80.75 C-58.515625 81.54921875 -59.03125 82.3484375 -59.5625 83.171875 C-60.036875 83.77515625 -60.51125 84.3784375 -61 85 C-61.66 85 -62.32 85 -63 85 C-63.08121094 85.54140625 -63.16242187 86.0828125 -63.24609375 86.640625 C-64.8512928 91.66414948 -68.88512174 95.84682898 -72 100 C-76.95 97.36 -81.9 94.72 -87 92 C-87 86.18958598 -83.61325362 83.61825088 -79.71435547 79.70727539 C-77.14265418 77.14228208 -74.5663684 74.58201053 -71.98828125 72.0234375 C-70.57886924 70.62091989 -69.16946474 69.21839465 -67.76049805 67.81542969 C-66.79067565 66.85067633 -65.81996361 65.88681652 -64.84838867 64.92382812 C-63.43433389 63.52189993 -62.02375814 62.11646535 -60.61328125 60.7109375 C-59.77579346 59.87868652 -58.93830566 59.04643555 -58.07543945 58.18896484 C-55.86541181 55.98223158 -55.86541181 55.98223158 -54 53 C-53.34 53 -52.68 53 -52 53 C-51.73454376 52.40955399 -51.46908752 51.81910797 -51.19558716 51.21076965 C-49.96526775 48.93577633 -48.69591925 47.4483351 -46.87060547 45.62768555 C-45.91853714 44.67100227 -45.91853714 44.67100227 -44.94723511 43.69499207 C-44.2608194 43.01576187 -43.57440369 42.33653168 -42.8671875 41.63671875 C-42.1565213 40.92651077 -41.4458551 40.2163028 -40.71365356 39.48457336 C-39.20795094 37.98189043 -37.69982002 36.48163732 -36.18945312 34.98364258 C-33.89923697 32.71154523 -31.61698689 30.43168678 -29.3359375 28.15039062 C-27.86765572 26.68703005 -26.39891977 25.22412502 -24.9296875 23.76171875 C-24.25541718 23.08856125 -23.58114685 22.41540375 -22.88644409 21.72184753 C-18.9599492 17.83367805 -14.93193307 14.11807127 -10.73977661 10.51739502 C-8.38826588 8.46645891 -6.18856172 6.285258 -4 4.0625 C-2.8553125 2.90427734 -2.8553125 2.90427734 -1.6875 1.72265625 C-1.130625 1.15417969 -0.57375 0.58570313 0 0 Z " fill="#623F77" transform="translate(628,621)"/>
<path d="M0 0 C0 17.82 0 35.64 0 54 C-7.88061412 47.2451879 -7.88061412 47.2451879 -11.04296875 44.2734375 C-12.06487305 43.314375 -12.06487305 43.314375 -13.10742188 42.3359375 C-13.79384766 41.68882812 -14.48027344 41.04171875 -15.1875 40.375 C-15.88552734 39.72015625 -16.58355469 39.0653125 -17.30273438 38.390625 C-20.58352974 35.30649006 -23.8441167 32.21296646 -27 29 C-25.66000502 25.993182 -24.20154709 24.00237391 -21.8125 21.75 C-19.30476276 19.31966206 -16.95303763 16.84494342 -14.6875 14.1875 C-2.45112967 0 -2.45112967 0 0 0 Z " fill="#377963" transform="translate(272,461)"/>
<path d="M0 0 C5.59034255 0.66791327 10.56929947 2.48866468 15.8125 4.4375 C16.68326172 4.75009766 17.55402344 5.06269531 18.45117188 5.38476562 C19.27810547 5.68962891 20.10503906 5.99449219 20.95703125 6.30859375 C21.70960205 6.58501709 22.46217285 6.86144043 23.23754883 7.14624023 C25 8 25 8 26 10 C25.28735352 12.43017578 25.28735352 12.43017578 24.12890625 15.4453125 C23.71962891 16.52167969 23.31035156 17.59804688 22.88867188 18.70703125 C22.45103516 19.83496094 22.01339844 20.96289062 21.5625 22.125 C21.12873047 23.26066406 20.69496094 24.39632812 20.24804688 25.56640625 C19.17215091 28.380288 18.08920434 31.19124866 17 34 C13.4617797 33.37658609 10.26706972 32.44678155 6.91796875 31.15234375 C5.98662109 30.79462891 5.05527344 30.43691406 4.09570312 30.06835938 C3.13599609 29.69517578 2.17628906 29.32199219 1.1875 28.9375 C0.20845703 28.56044922 -0.77058594 28.18339844 -1.77929688 27.79492188 C-4.1876001 26.86684405 -6.59441614 25.93509884 -9 25 C-7.07196441 19.09133642 -5.01799567 13.2480281 -2.8125 7.4375 C-2.40354492 6.3537207 -2.40354492 6.3537207 -1.98632812 5.24804688 C-1.3257582 3.49811603 -0.66310684 1.74897111 0 0 Z " fill="#000000" transform="translate(802,803)"/>
<path d="M0 0 C1.53393555 2.01953125 1.53393555 2.01953125 3.13671875 4.8125 C3.71357422 5.80507813 4.29042969 6.79765625 4.88476562 7.8203125 C5.47966797 8.86960937 6.07457031 9.91890625 6.6875 11 C7.29400391 12.04929687 7.90050781 13.09859375 8.52539062 14.1796875 C10.02699233 16.7808873 11.51791788 19.38764474 13 22 C8.73871033 25.62464281 4.17086239 28.46853724 -0.625 31.3125 C-1.388125 31.77978516 -2.15125 32.24707031 -2.9375 32.72851562 C-3.67226563 33.16486328 -4.40703125 33.60121094 -5.1640625 34.05078125 C-5.82873535 34.44950439 -6.4934082 34.84822754 -7.17822266 35.2590332 C-9 36 -9 36 -12 35 C-13.44213867 32.99047852 -13.44213867 32.99047852 -14.91796875 30.37890625 C-15.44970703 29.44369141 -15.98144531 28.50847656 -16.52929688 27.54492188 C-17.07650391 26.56072266 -17.62371094 25.57652344 -18.1875 24.5625 C-18.74630859 23.58216797 -19.30511719 22.60183594 -19.88085938 21.59179688 C-24 14.28396864 -24 14.28396864 -24 12 C-20.56853286 9.98951049 -17.12889088 7.99344755 -13.6875 6 C-12.71103516 5.42765625 -11.73457031 4.8553125 -10.72851562 4.265625 C-9.79072266 3.72421875 -8.85292969 3.1828125 -7.88671875 2.625 C-7.02264404 2.12226562 -6.15856934 1.61953125 -5.26831055 1.1015625 C-3 0 -3 0 0 0 Z " fill="#000000" transform="translate(410,789)"/>
<path d="M0 0 C5.59034255 0.66791327 10.56929947 2.48866468 15.8125 4.4375 C16.68326172 4.75009766 17.55402344 5.06269531 18.45117188 5.38476562 C19.27810547 5.68962891 20.10503906 5.99449219 20.95703125 6.30859375 C21.70960205 6.58501709 22.46217285 6.86144043 23.23754883 7.14624023 C25 8 25 8 26 10 C25.28735352 12.43017578 25.28735352 12.43017578 24.12890625 15.4453125 C23.71962891 16.52167969 23.31035156 17.59804688 22.88867188 18.70703125 C22.45103516 19.83496094 22.01339844 20.96289062 21.5625 22.125 C21.12873047 23.26066406 20.69496094 24.39632813 20.24804688 25.56640625 C19.17215091 28.380288 18.08920434 31.19124866 17 34 C13.4617797 33.37658609 10.26706972 32.44678155 6.91796875 31.15234375 C5.98662109 30.79462891 5.05527344 30.43691406 4.09570312 30.06835938 C3.13599609 29.69517578 2.17628906 29.32199219 1.1875 28.9375 C0.20845703 28.56044922 -0.77058594 28.18339844 -1.77929688 27.79492188 C-4.1876001 26.86684405 -6.59441614 25.93509884 -9 25 C-7.07196441 19.09133642 -5.01799567 13.2480281 -2.8125 7.4375 C-2.40354492 6.3537207 -2.40354492 6.3537207 -1.98632812 5.24804688 C-1.3257582 3.49811603 -0.66310684 1.74897111 0 0 Z " fill="#000000" transform="translate(153,367)"/>
<path d="M0 0 C2.96871005 1.32630801 4.95641746 2.73827766 7.1640625 5.1171875 C8.01097656 6.02791016 8.01097656 6.02791016 8.875 6.95703125 C9.4525 7.58996094 10.03 8.22289062 10.625 8.875 C11.21023438 9.50019531 11.79546875 10.12539062 12.3984375 10.76953125 C15.12982975 13.73271596 17.30994224 16.3084785 19 20 C16.96004487 21.89770306 14.91810165 23.79318945 12.875 25.6875 C12.30523438 26.21794922 11.73546875 26.74839844 11.1484375 27.29492188 C7.52351755 30.65209206 3.82221468 33.86903691 0 37 C-3.19119001 35.61946345 -5.03343562 34.10060526 -7.25 31.4375 C-7.84425781 30.73496094 -8.43851563 30.03242188 -9.05078125 29.30859375 C-9.69402344 28.54675781 -10.33726562 27.78492188 -11 27 C-12.47452034 25.32922126 -13.95361962 23.6624713 -15.4375 22 C-16.11683594 21.236875 -16.79617188 20.47375 -17.49609375 19.6875 C-17.99238281 19.130625 -18.48867188 18.57375 -19 18 C-13.35954144 11.09043827 -7.0208908 5.48507094 0 0 Z " fill="#000000" transform="translate(528,139)"/>
<path d="M0 0 C4.269375 -0.020625 8.53875 -0.04125 12.9375 -0.0625 C14.95991821 -0.07615601 14.95991821 -0.07615601 17.02319336 -0.09008789 C18.6030603 -0.09383423 18.6030603 -0.09383423 20.21484375 -0.09765625 C21.84087524 -0.10551147 21.84087524 -0.10551147 23.49975586 -0.11352539 C26 0 26 0 27 1 C27.08748207 2.92667507 27.10697334 4.85651861 27.09765625 6.78515625 C27.09515869 7.83840088 27.09266113 8.89164551 27.09008789 9.97680664 C27.08098389 11.32508545 27.07187988 12.67336426 27.0625 14.0625 C27.041875 18.331875 27.02125 22.60125 27 27 C18.09 27 9.18 27 0 27 C0 18.09 0 9.18 0 0 Z " fill="#FFFFFE" transform="translate(238,594)"/>
<path d="M0 0 C3.43047704 0.63210981 5.69658283 1.95775697 8.546875 3.94140625 C9.39121094 4.52470703 10.23554687 5.10800781 11.10546875 5.70898438 C12.41451172 6.62647461 12.41451172 6.62647461 13.75 7.5625 C14.63816406 8.17802734 15.52632812 8.79355469 16.44140625 9.42773438 C18.6313436 10.94656189 20.81730949 12.47078496 23 14 C19.90605536 19.80895394 16.58272393 25.25922476 12.6875 30.5625 C12.23310547 31.18962891 11.77871094 31.81675781 11.31054688 32.46289062 C10.21145601 33.97847909 9.10638629 35.489729 8 37 C0.42251879 32.30987623 -6.85282508 27.3223643 -14 22 C-12.33383155 16.73786039 -9.06931631 12.60840413 -5.875 8.1875 C-5.31167969 7.39923828 -4.74835937 6.61097656 -4.16796875 5.79882812 C-2.78322342 3.86253169 -1.39381373 1.92977359 0 0 Z " fill="#FFFFFF" transform="translate(631,718)"/>
<path d="M0 0 C2.48850659 1.23377222 4.96464618 2.48554891 7.4375 3.75 C8.14455078 4.09804688 8.85160156 4.44609375 9.58007812 4.8046875 C14.79326453 7.49858287 14.79326453 7.49858287 15.81494141 9.9765625 C16 12 16 12 14.33984375 14.515625 C13.54707031 15.41796875 12.75429688 16.3203125 11.9375 17.25 C8.10078747 21.71617318 4.47260101 26.24730293 1 31 C-3.3573226 29.52869627 -6.71934134 27.16919385 -10.3125 24.375 C-11.13717773 23.74464844 -11.13717773 23.74464844 -11.97851562 23.1015625 C-13.32292168 22.07279961 -14.66201413 21.0370991 -16 20 C-15.4573558 16.05915769 -13.65373758 14.36692506 -10.8125 11.6875 C-6.94827696 7.95908032 -3.42749154 4.13056673 0 0 Z " fill="#32487A" transform="translate(539,711)"/>
<path d="M0 0 C4.67199091 1.53093488 8.02170005 4.10757395 11.8125 7.125 C12.40998047 7.59292969 13.00746094 8.06085938 13.62304688 8.54296875 C15.08616792 9.69005565 16.54366297 10.84431234 18 12 C16.58844456 15.10124989 14.90370231 17.54024963 12.6875 20.125 C12.11386719 20.80820313 11.54023438 21.49140625 10.94921875 22.1953125 C8.58631759 24.38300857 7.18418939 25.37869475 4 26 C1.31333992 24.91936561 -0.8154222 23.86504243 -3.25 22.375 C-3.88679688 22.01792969 -4.52359375 21.66085938 -5.1796875 21.29296875 C-9.73785638 18.60655858 -9.73785638 18.60655858 -10.83081055 16.07763672 C-11.05092048 13.37469946 -10.39673565 12.61626349 -8.69140625 10.546875 C-8.19189453 9.928125 -7.69238281 9.309375 -7.17773438 8.671875 C-6.64470703 8.03765625 -6.11167969 7.4034375 -5.5625 6.75 C-5.03333984 6.1003125 -4.50417969 5.450625 -3.95898438 4.78125 C-2.65062191 3.1782113 -1.32674973 1.58785408 0 0 Z " fill="#B6AB81" transform="translate(466,228)"/>
<path d="M0 0 C0.33 0 0.66 0 1 0 C1.33 5.94 1.66 11.88 2 18 C3.65 15.36 5.3 12.72 7 10 C11.67199091 11.53093488 15.02170005 14.10757395 18.8125 17.125 C19.40998047 17.59292969 20.00746094 18.06085938 20.62304688 18.54296875 C22.08616792 19.69005565 23.54366297 20.84431234 25 22 C23.55797524 26.15151338 21.4989562 29.29978445 18.875 32.8125 C18.15054688 33.78832031 17.42609375 34.76414062 16.6796875 35.76953125 C16.12539063 36.50558594 15.57109375 37.24164063 15 38 C10.77242825 37.49742154 8.72867105 35.12951599 5.8125 32.1875 C4.93207031 31.31480469 4.05164063 30.44210937 3.14453125 29.54296875 C-0.11264396 25.68063531 -0.12514727 22.5265089 -0.09765625 17.578125 C-0.09443359 16.55332031 -0.09121094 15.52851563 -0.08789062 14.47265625 C-0.07951172 13.40917969 -0.07113281 12.34570312 -0.0625 11.25 C-0.05798828 10.17105469 -0.05347656 9.09210938 -0.04882812 7.98046875 C-0.03705727 5.32025617 -0.02061399 2.66015635 0 0 Z " fill="#B7AB81" transform="translate(735,426)"/>
<path d="M0 0 C0.33 0 0.66 0 1 0 C1 15.84 1 31.68 1 48 C-3.17437899 46.60854034 -6.19196096 45.49553763 -9.875 43.375 C-11.04675781 42.70597656 -11.04675781 42.70597656 -12.2421875 42.0234375 C-12.82226562 41.68570313 -13.40234375 41.34796875 -14 41 C-13.48005411 35.70504082 -10.73227975 31.65460692 -8.0625 27.1875 C-7.60681641 26.39923828 -7.15113281 25.61097656 -6.68164062 24.79882812 C-6.02131836 23.68217773 -6.02131836 23.68217773 -5.34765625 22.54296875 C-4.94554932 21.86258545 -4.54344238 21.18220215 -4.12915039 20.48120117 C-3.75653076 19.99240479 -3.38391113 19.5036084 -3 19 C-2.34 19 -1.68 19 -1 19 C-0.67 12.73 -0.34 6.46 0 0 Z " fill="#7D3770" transform="translate(271,515)"/>
<path d="M0 0 C5.76044212 0.60636233 10.72014369 2.75658279 16 5 C15.39363767 10.76044212 13.24341721 15.72014369 11 21 C5.23955788 20.39363767 0.27985631 18.24341721 -5 16 C-4.39363767 10.23955788 -2.24341721 5.27985631 0 0 Z " fill="#FFFFFF" transform="translate(316,346)"/>
<path d="M0 0 C2.85837746 1.53688727 4.05951029 3.62847793 5.79296875 6.34375 C6.42976562 7.30925781 7.0665625 8.27476562 7.72265625 9.26953125 C8.91796875 12.03125 8.91796875 12.03125 8.46484375 14.15234375 C6.38798164 16.67499697 4.08444161 18.09338269 1.29296875 19.78125 C0.29007813 20.39484375 -0.7128125 21.0084375 -1.74609375 21.640625 C-2.51695312 22.09953125 -3.2878125 22.5584375 -4.08203125 23.03125 C-5.41640969 21.36541996 -6.7495733 19.69861659 -8.08203125 18.03125 C-8.58347656 17.41121094 -9.08492187 16.79117188 -9.6015625 16.15234375 C-10.02824219 15.59675781 -10.45492187 15.04117188 -10.89453125 14.46875 C-11.33410156 13.91058594 -11.77367187 13.35242188 -12.2265625 12.77734375 C-13.08203125 11.03125 -13.08203125 11.03125 -13.01953125 9.0546875 C-11.69081382 6.18687237 -9.84820528 5.01211774 -7.26953125 3.21875 C-5.96048828 2.28095703 -5.96048828 2.28095703 -4.625 1.32421875 C-2.08203125 0.03125 -2.08203125 0.03125 0 0 Z " fill="#FFFFFF" transform="translate(694.08203125,626.96875)"/>
<path d="M0 0 C1.73017508 0.45451184 3.45909877 0.91378857 5.1875 1.375 C6.15042969 1.63023437 7.11335937 1.88546875 8.10546875 2.1484375 C10.82210207 2.94766296 13.39137175 3.9031362 16 5 C15.45776686 11.23568111 13.44588437 16.24033681 11 22 C5.72 20.02 0.44 18.04 -5 16 C-3.40615011 10.63886855 -1.8106711 5.29273092 0 0 Z " fill="#FFFFFF" transform="translate(653,248)"/>
<path d="M0 0 C4.31460946 0.50715585 6.28766498 1.80875708 9.375 4.8125 C12.13061892 7.38840464 14.67915188 9.57791552 18 11.375 C21 13 21 13 22 15 C23.72429722 15.98987433 25.4509497 16.97741399 27.2109375 17.90234375 C29.12071917 19.07406569 30.41929895 20.41929895 32 22 C34.31092391 23.59332122 36.67062055 25.09151113 39.0390625 26.59765625 C41 28 41 28 42 30 C37.72489939 31.00309623 34.28125753 31.03324722 30 30 C25.01165023 26.85993943 21.01991887 22.32955234 16.98925781 18.08007812 C14.9355005 15.93255575 12.83353324 13.84502001 10.7109375 11.765625 C7.09660704 8.21671229 3.49673629 4.66537322 0 1 C0 0.67 0 0.34 0 0 Z " fill="#A8C3BD" transform="translate(638,359)"/>
<path d="M0 0 C6.27 0 12.54 0 19 0 C19 0.66 19 1.32 19 2 C19.66 2 20.32 2 21 2 C21 2.66 21 3.32 21 4 C21.59329102 4.26731934 22.18658203 4.53463867 22.79785156 4.81005859 C25.02933245 6.01584993 26.4664799 7.2358095 28.234375 9.0390625 C28.80800781 9.61914062 29.38164062 10.19921875 29.97265625 10.796875 C30.55917969 11.40015625 31.14570313 12.0034375 31.75 12.625 C32.35199219 13.23601563 32.95398438 13.84703125 33.57421875 14.4765625 C35.05405305 15.97988624 36.52764676 17.48934856 38 19 C37.505 20.485 37.505 20.485 37 22 C36.44763672 21.68361572 35.89527344 21.36723145 35.32617188 21.04125977 C23.57697751 14.31370222 11.81228203 7.61621454 0 1 C0 0.67 0 0.34 0 0 Z " fill="#783475" transform="translate(351,607)"/>
<path d="M0 0 C-1.4264578 3.2586636 -3.16704162 5.4024854 -5.6953125 7.890625 C-6.41074219 8.59960938 -7.12617187 9.30859375 -7.86328125 10.0390625 C-8.60964844 10.76867187 -9.35601563 11.49828125 -10.125 12.25 C-10.87910156 12.99507812 -11.63320313 13.74015625 -12.41015625 14.5078125 C-14.26900772 16.3431342 -16.13237005 18.1736191 -18 20 C-21.3667692 17.26037408 -24.55723199 14.62971366 -27.375 11.3125 C-27.87773438 10.73113281 -28.38046875 10.14976562 -28.8984375 9.55078125 C-30 8 -30 8 -30 6 C-29.09378906 5.96261719 -28.18757812 5.92523437 -27.25390625 5.88671875 C-17.89232269 5.38149043 -8.42093773 0 0 0 Z " fill="#A4758F" transform="translate(717,528)"/>
<path d="M0 0 C2.31 1.98 4.62 3.96 7 6 C8.99702063 7.67023543 10.99599938 9.33814583 13 11 C12.2575 11.680625 11.515 12.36125 10.75 13.0625 C8.71492197 15.08038019 7.29986444 17.04402551 5.9375 19.5625 C4 23 4 23 0 27 C0 18.09 0 9.18 0 0 Z " fill="#BE8896" transform="translate(736,453)"/>
<path d="M0 0 C0.33 0 0.66 0 1 0 C1 8.25 1 16.5 1 25 C-6.875 18.25 -6.875 18.25 -10 15 C-8.37879192 11.43503982 -6.2405574 8.40991178 -3.9375 5.25 C-3.22464844 4.26515625 -2.51179688 3.2803125 -1.77734375 2.265625 C-1.19082031 1.51796875 -0.60429687 0.7703125 0 0 Z " fill="#33676D" transform="translate(270,489)"/>
<path d="M0 0 C2.31 0 4.62 0 7 0 C7 0.66 7 1.32 7 2 C7.66 2 8.32 2 9 2 C9 2.66 9 3.32 9 4 C9.59329102 4.26731934 10.18658203 4.53463867 10.79785156 4.81005859 C13.02933245 6.01584993 14.4664799 7.2358095 16.234375 9.0390625 C16.80800781 9.61914062 17.38164062 10.19921875 17.97265625 10.796875 C18.55917969 11.40015625 19.14570313 12.0034375 19.75 12.625 C20.35199219 13.23601563 20.95398438 13.84703125 21.57421875 14.4765625 C23.05405305 15.97988624 24.52764676 17.48934856 26 19 C25.67 19.99 25.34 20.98 25 22 C24.64808594 21.54109375 24.29617188 21.0821875 23.93359375 20.609375 C20.31217681 16.10860616 17.1158578 13.64928351 12 11 C9.90269606 9.75083655 7.97557584 8.4455433 6 7 C6 6.34 6 5.68 6 5 C5.38125 4.9175 4.7625 4.835 4.125 4.75 C2 4 2 4 0.75 1.9375 C0.5025 1.298125 0.255 0.65875 0 0 Z " fill="#5A4374" transform="translate(363,607)"/>
<path d="M0 0 C2.375 0.75 2.375 0.75 5 2 C5.28085449 2.5784668 5.56170898 3.15693359 5.85107422 3.75292969 C7.41283923 6.80743142 9.5705316 8.79385882 12.0078125 11.203125 C12.49329559 11.6857782 12.97877869 12.1684314 13.47897339 12.66571045 C15.02299866 14.19858562 16.57384824 15.72434004 18.125 17.25 C19.17624009 18.29120361 20.22702657 19.33286541 21.27734375 20.375 C23.84633004 22.92199464 26.42148161 25.46265177 29 28 C26 28 26 28 24.1328125 26.42578125 C23.47023438 25.72839844 22.80765625 25.03101563 22.125 24.3125 C21.46757813 23.62800781 20.81015625 22.94351562 20.1328125 22.23828125 C19.42898438 21.49964844 18.72515625 20.76101563 18 20 C16.33604115 18.33062991 14.66917481 16.66415474 13 15 C12.05792213 14.04753883 11.11653196 13.09439704 10.17578125 12.140625 C9.22136663 11.17707098 8.26693948 10.21352938 7.3125 9.25 C6.82716797 8.75628906 6.34183594 8.26257813 5.84179688 7.75390625 C3.18159783 5.03384724 3.18159783 5.03384724 0 3 C0 2.01 0 1.02 0 0 Z " fill="#AFB6C9" transform="translate(609,330)"/>
<path d="M0 0 C0.99 0.66 1.98 1.32 3 2 C1.29556344 3.70443656 -0.409296 5.40839804 -2.1171875 7.109375 C-3.25812128 8.25504295 -4.39084903 9.40907515 -5.5078125 10.578125 C-6.63632171 11.753937 -7.81421522 12.88197435 -9 14 C-9.66 14 -10.32 14 -11 14 C-9.7580393 10.56072421 -8.44259716 7.74792181 -6 5 C-5.34 5 -4.68 5 -4 5 C-2.61767557 3.37373596 -1.28062485 1.7074998 0 0 Z " fill="#8487A1" transform="translate(371,355)"/>
<path d="M0 0 C3.465 1.98 3.465 1.98 7 4 C5.02 7.63 3.04 11.26 1 15 C0.67 15 0.34 15 0 15 C0 10.05 0 5.1 0 0 Z " fill="#A4C1B9" transform="translate(736,431)"/>
<path d="M0 0 C0.65795898 1.79785156 0.65795898 1.79785156 1 4 C0.01196289 5.64746094 0.01196289 5.64746094 -1.52734375 7.234375 C-2.07197266 7.80800781 -2.61660156 8.38164063 -3.17773438 8.97265625 C-3.75845703 9.55917969 -4.33917969 10.14570312 -4.9375 10.75 C-5.51435547 11.35199219 -6.09121094 11.95398438 -6.68554688 12.57421875 C-8.11258805 14.06022857 -9.55489405 15.53155166 -11 17 C-11.99 16.34 -12.98 15.68 -14 15 C-8.25 10 -8.25 10 -6 10 C-5.62875 9.195625 -5.62875 9.195625 -5.25 8.375 C-3.70303025 5.43575748 -1.86985631 2.74245592 0 0 Z " fill="#C76B76" transform="translate(729,512)"/>
<path d="M0 0 C-0.95467564 1.62715156 -1.91386848 3.25165346 -2.875 4.875 C-3.40867187 5.77992188 -3.94234375 6.68484375 -4.4921875 7.6171875 C-6 10 -6 10 -8 12 C-8.29915966 3.02521008 -8.29915966 3.02521008 -6 0 C-3 -1 -3 -1 0 0 Z " fill="#456C6F" transform="translate(325,436)"/>
<path d="M0 0 C1.32 0.33 2.64 0.66 4 1 C3.48223379 5.10447392 1.35372556 6.95699523 -1.5625 9.75 C-2.80193359 10.94882812 -2.80193359 10.94882812 -4.06640625 12.171875 C-4.70449219 12.77515625 -5.34257812 13.3784375 -6 14 C-6.33 13.01 -6.66 12.02 -7 11 C-4.36 8.36 -1.72 5.72 1 3 C0.67 2.01 0.34 1.02 0 0 Z " fill="#A8AFB1" transform="translate(468,253)"/>
<path d="M0 0 C0.66 0.33 1.32 0.66 2 1 C1.09373216 2.2989839 0.17450463 3.58893167 -0.75 4.875 C-1.26046875 5.59429688 -1.7709375 6.31359375 -2.296875 7.0546875 C-4.09536733 9.10892874 -5.50611405 9.95581198 -8 11 C-8.99 11.495 -8.99 11.495 -10 12 C-8.44396229 8.18063472 -6.04395069 5.73955562 -3 3 C-2.34 3 -1.68 3 -1 3 C-0.67 2.01 -0.34 1.02 0 0 Z " fill="#735C84" transform="translate(634,613)"/>
<path d="M0 0 C0.556875 0.28875 1.11375 0.5775 1.6875 0.875 C4.08494645 2.0413253 6.51596939 3.0339881 9 4 C8.67 4.99 8.34 5.98 8 7 C4.63718422 5.55879324 2.4480582 3.71035015 0 1 C0 0.67 0 0.34 0 0 Z " fill="#BD96B9" transform="translate(593,322)"/>
<path d="M0 0 C3.25543229 0.34879632 4.01873107 1.02133261 6.25 3.5625 C6.8275 4.366875 7.405 5.17125 8 6 C2.33846154 4.52307692 2.33846154 4.52307692 0.625 1.875 C0.41875 1.25625 0.2125 0.6375 0 0 Z " fill="#683477" transform="translate(379,621)"/>
<path d="M0 0 C0.33 0 0.66 0 1 0 C1 2.64 1 5.28 1 8 C-0.32 7.34 -1.64 6.68 -3 6 C-2.67 4.68 -2.34 3.36 -2 2 C-1.34 2 -0.68 2 0 2 C0 1.34 0 0.68 0 0 Z " fill="#603B77" transform="translate(270,532)"/>
<path d="M0 0 C0.99 0.33 1.98 0.66 3 1 C0.03 3.475 0.03 3.475 -3 6 C-3.66 5.34 -4.32 4.68 -5 4 C-2.6875 1.9375 -2.6875 1.9375 0 0 Z " fill="#BC7382" transform="translate(720,523)"/>
</svg>
